<?xml version="1.0" standalone="no"?>
<!DOCTYPE svg PUBLIC "-//W3C//DTD SVG 1.1//EN" "http://www.w3.org/Graphics/SVG/1.1/DTD/svg11.dtd">
<svg t="1719125244989" class="icon" viewBox="100 10 824 824" version="1.1" xmlns="http://www.w3.org/2000/svg" p-id="3638" xmlns:xlink="http://www.w3.org/1999/xlink" width="200" height="200">
    <!-- First path element is removed -->
    <path d="M782.226404 210.889535H511.993c-22.54795 0-40.82991 18.27996-40.82991 40.829909s18.27996 40.82991 40.82991 40.82991h270.233404c22.54795 0 40.82991-18.27996 40.829909-40.82991-0.002-22.55395-18.27996-40.82991-40.829909-40.829909zM237.765605 292.337355c2.849994 0.287999 5.173989 0.291999 8.029983 0 21.347953-2.217995 36.799919-19.959956 36.799918-40.611911 0-20.537955-15.311966-38.385915-36.799918-40.63791a39.611913 39.611913 0 0 0-8.029983 0c-21.595952 2.215995-36.827919 20.367955-36.827918 40.63791 0 20.265955 15.249966 38.419915 36.827918 40.611911zM512.009 559.464765H241.777596c-22.54795 0-40.82991 18.27996-40.829909 40.82991s18.27996 40.82991 40.829909 40.82991h270.233404c22.54795 0 40.82991-18.27996 40.82991-40.82991s-18.28396-40.82991-40.83191-40.82991zM372.893307 292.337355c2.849994 0.287999 5.173989 0.291999 8.029982 0 21.347953-2.217995 36.799919-19.959956 36.799919-40.611911 0-20.537955-15.311966-38.385915-36.799919-40.63791a39.611913 39.611913 0 0 0-8.029982 0c-21.595952 2.215995-36.827919 20.367955-36.827919 40.63791-0.002 20.265955 15.249966 38.419915 36.827919 40.611911zM237.765605 466.62497c2.849994 0.287999 5.173989 0.291999 8.029983 0 21.347953-2.217995 36.799919-19.959956 36.799918-40.61191 0-20.537955-15.311966-38.385915-36.799918-40.637911a39.611913 39.611913 0 0 0-8.029983 0c-21.595952 2.215995-36.827919 20.367955-36.827918 40.637911 0 20.263955 15.249966 38.419915 36.827918 40.61191zM516.028991 466.62497c21.347953-2.217995 36.799919-19.959956 36.799919-40.61191 0-20.537955-15.311966-38.385915-36.799919-40.637911a39.611913 39.611913 0 0 0-8.029982 0c-21.595952 2.215995-36.827919 20.367955-36.827919 40.637911 0 20.265955 15.251966 38.419915 36.827919 40.61191 2.849994 0.287999 5.175989 0.289999 8.029982 0zM786.250395 385.373149a39.611913 39.611913 0 0 0-8.029983 0c-21.595952 2.215995-36.827919 20.367955-36.827918 40.637911 0 20.265955 15.251966 38.419915 36.827918 40.61191 2.849994 0.287999 5.173989 0.291999 8.029983 0 21.347953-2.217995 36.799919-19.959956 36.799919-40.61191 0.002-20.535955-15.309966-38.383915-36.799919-40.637911zM786.250395 559.660765a39.611913 39.611913 0 0 0-8.029983 0c-21.595952 2.215995-36.827919 20.367955-36.827918 40.63791 0 20.263955 15.251966 38.419915 36.827918 40.61191 2.849994 0.287999 5.173989 0.291999 8.029983 0 21.347953-2.217995 36.799919-19.959956 36.799919-40.61191 0.002-20.533955-15.309966-38.383915-36.799919-40.63791zM652.126691 559.660765a39.611913 39.611913 0 0 0-8.029983 0c-21.595952 2.215995-36.827919 20.367955-36.827918 40.63791 0 20.263955 15.251966 38.419915 36.827918 40.61191 2.849994 0.287999 5.173989 0.291999 8.029983 0 21.347953-2.217995 36.799919-19.959956 36.799919-40.61191 0.002-20.533955-15.309966-38.383915-36.799919-40.63791z" fill="#231F20" p-id="3640"></path>
</svg>